<?xml version="1.0" encoding="utf-8"?>
<svg version="1.1" xmlns:xlink="http://www.w3.org/1999/xlink" width="12px" height="12px" viewBox="344 656  12 12" xmlns="http://www.w3.org/2000/svg">
  <path d="M 350 656  C 353.36 656  356 658.64  356 662  C 356 665.36  353.36 668  350 668  C 346.64 668  344 665.36  344 662  C 344 658.64  346.64 656  350 656  Z " fill-rule="nonzero" fill="#ffffff" stroke="none" />
  <path d="M 350 656.5  C 353.08 656.5  355.5 658.92  355.5 662  C 355.5 665.08  353.08 667.5  350 667.5  C 346.92 667.5  344.5 665.08  344.5 662  C 344.5 658.92  346.92 656.5  350 656.5  Z " stroke-width="1" stroke="#797979" fill="none" />
  <path d="M 350 665  C 348.32 665  347 663.68  347 662  C 347 660.32  348.32 659  350 659  C 351.68 659  353 660.32  353 662  C 353 663.68  351.68 665  350 665  " fill-rule="nonzero" fill="#797979" stroke="none" />
</svg>