<?xml version="1.0" encoding="utf-8"?>
<svg version="1.1" xmlns:xlink="http://www.w3.org/1999/xlink" width="12px" height="12px" viewBox="344 695  12 12" xmlns="http://www.w3.org/2000/svg">
  <path d="M 350 695  C 353.36 695  356 697.64  356 701  C 356 704.36  353.36 707  350 707  C 346.64 707  344 704.36  344 701  C 344 697.64  346.64 695  350 695  Z " fill-rule="nonzero" fill="#ffffff" stroke="none" />
  <path d="M 350 695.5  C 353.08 695.5  355.5 697.92  355.5 701  C 355.5 704.08  353.08 706.5  350 706.5  C 346.92 706.5  344.5 704.08  344.5 701  C 344.5 697.92  346.92 695.5  350 695.5  Z " stroke-width="1" stroke="#797979" fill="none" />
  <path d="M 350 704  C 348.32 704  347 702.68  347 701  C 347 699.32  348.32 698  350 698  C 351.68 698  353 699.32  353 701  C 353 702.68  351.68 704  350 704  " fill-rule="nonzero" fill="#797979" stroke="none" />
</svg>