<?xml version="1.0" encoding="utf-8"?>
<svg version="1.1" xmlns:xlink="http://www.w3.org/1999/xlink" width="18px" height="18px" preserveAspectRatio="xMinYMid meet" viewBox="1110 330  18 16" xmlns="http://www.w3.org/2000/svg">
  <path d="M 958 338.5  L 1117.5 338.5  " stroke-width="1" stroke="#ff0000" fill="none" />
  <path d="M 958.5 336  A 3 3 0 0 0 955.5 339 A 3 3 0 0 0 958.5 342 A 3 3 0 0 0 961.5 339 A 3 3 0 0 0 958.5 336 Z M 958.5 337  A 2 2 0 0 1 960.5 339 A 2 2 0 0 1 958.5 341 A 2 2 0 0 1 956.5 339 A 2 2 0 0 1 958.5 337 Z M 1119.5 335.5  A 3 3 0 0 0 1116.5 338.5 A 3 3 0 0 0 1119.5 341.5 A 3 3 0 0 0 1122.5 338.5 A 3 3 0 0 0 1119.5 335.5 Z M 1119.5 336.5  A 2 2 0 0 1 1121.5 338.5 A 2 2 0 0 1 1119.5 340.5 A 2 2 0 0 1 1117.5 338.5 A 2 2 0 0 1 1119.5 336.5 Z " fill-rule="nonzero" fill="#ff0000" stroke="none" />
</svg>