<?xml version="1.0" encoding="utf-8"?>
<svg version="1.1" xmlns:xlink="http://www.w3.org/1999/xlink" width="18px" height="18px" preserveAspectRatio="xMinYMid meet" viewBox="1042 384  18 16" xmlns="http://www.w3.org/2000/svg">
  <path d="M 394 394.5  L 1051.5 394.5  " stroke-width="1" stroke="#ff0000" fill="none" />
  <path d="M 392 391.5  A 3 3 0 0 0 389 394.5 A 3 3 0 0 0 392 397.5 A 3 3 0 0 0 395 394.5 A 3 3 0 0 0 392 391.5 Z M 392 392.5  A 2 2 0 0 1 394 394.5 A 2 2 0 0 1 392 396.5 A 2 2 0 0 1 390 394.5 A 2 2 0 0 1 392 392.5 Z M 1050.5 391.5  A 3 3 0 0 0 1047.5 394.5 A 3 3 0 0 0 1050.5 397.5 A 3 3 0 0 0 1053.5 394.5 A 3 3 0 0 0 1050.5 391.5 Z M 1050.5 392.5  A 2 2 0 0 1 1052.5 394.5 A 2 2 0 0 1 1050.5 396.5 A 2 2 0 0 1 1048.5 394.5 A 2 2 0 0 1 1050.5 392.5 Z " fill-rule="nonzero" fill="#ff0000" stroke="none" />
</svg>