<?xml version="1.0" encoding="utf-8"?>
<svg version="1.1" xmlns:xlink="http://www.w3.org/1999/xlink" width="18px" height="18px" preserveAspectRatio="xMinYMid meet" viewBox="838 145  18 16" xmlns="http://www.w3.org/2000/svg">
  <path d="M 849 153.5  L 960.5 153.5  L 960.5 152.5  L 965.5 152.5  " stroke-width="1" stroke="#ff0000" fill="none" />
  <path d="M 847 150.5  A 3 3 0 0 0 844 153.5 A 3 3 0 0 0 847 156.5 A 3 3 0 0 0 850 153.5 A 3 3 0 0 0 847 150.5 Z M 847 151.5  A 2 2 0 0 1 849 153.5 A 2 2 0 0 1 847 155.5 A 2 2 0 0 1 845 153.5 A 2 2 0 0 1 847 151.5 Z M 967.5 149.5  A 3 3 0 0 0 964.5 152.5 A 3 3 0 0 0 967.5 155.5 A 3 3 0 0 0 970.5 152.5 A 3 3 0 0 0 967.5 149.5 Z M 967.5 150.5  A 2 2 0 0 1 969.5 152.5 A 2 2 0 0 1 967.5 154.5 A 2 2 0 0 1 965.5 152.5 A 2 2 0 0 1 967.5 150.5 Z " fill-rule="nonzero" fill="#ff0000" stroke="none" />
</svg>