<?xml version="1.0" encoding="utf-8"?>
<svg version="1.1" xmlns:xlink="http://www.w3.org/1999/xlink" width="18px" height="18px" preserveAspectRatio="xMinYMid meet" viewBox="864 232  18 16" xmlns="http://www.w3.org/2000/svg">
  <path d="M 873 240.5  L 966.5 240.5  " stroke-width="1" stroke="#ff0000" fill="none" />
  <path d="M 873.5 237  A 3 3 0 0 0 870.5 240 A 3 3 0 0 0 873.5 243 A 3 3 0 0 0 876.5 240 A 3 3 0 0 0 873.5 237 Z M 873.5 238  A 2 2 0 0 1 875.5 240 A 2 2 0 0 1 873.5 242 A 2 2 0 0 1 871.5 240 A 2 2 0 0 1 873.5 238 Z M 968.5 237.5  A 3 3 0 0 0 965.5 240.5 A 3 3 0 0 0 968.5 243.5 A 3 3 0 0 0 971.5 240.5 A 3 3 0 0 0 968.5 237.5 Z M 968.5 238.5  A 2 2 0 0 1 970.5 240.5 A 2 2 0 0 1 968.5 242.5 A 2 2 0 0 1 966.5 240.5 A 2 2 0 0 1 968.5 238.5 Z " fill-rule="nonzero" fill="#ff0000" stroke="none" />
</svg>