<?xml version="1.0" encoding="utf-8"?>
<svg version="1.1" xmlns:xlink="http://www.w3.org/1999/xlink" width="10px" height="8px" preserveAspectRatio="xMinYMid meet" viewBox="405 334  10 6" xmlns="http://www.w3.org/2000/svg">
  <path d="M 410 338.5  L 569.5 338.5  " stroke-width="1" stroke="#ff0000" fill="none" />
  <path d="M 410.5 336  A 3 3 0 0 0 407.5 339 A 3 3 0 0 0 410.5 342 A 3 3 0 0 0 413.5 339 A 3 3 0 0 0 410.5 336 Z M 410.5 337  A 2 2 0 0 1 412.5 339 A 2 2 0 0 1 410.5 341 A 2 2 0 0 1 408.5 339 A 2 2 0 0 1 410.5 337 Z M 571.5 335.5  A 3 3 0 0 0 568.5 338.5 A 3 3 0 0 0 571.5 341.5 A 3 3 0 0 0 574.5 338.5 A 3 3 0 0 0 571.5 335.5 Z M 571.5 336.5  A 2 2 0 0 1 573.5 338.5 A 2 2 0 0 1 571.5 340.5 A 2 2 0 0 1 569.5 338.5 A 2 2 0 0 1 571.5 336.5 Z " fill-rule="nonzero" fill="#ff0000" stroke="none" />
</svg>