<?xml version="1.0" encoding="utf-8"?>
<svg version="1.1" xmlns:xlink="http://www.w3.org/1999/xlink" width="8px" height="8px" xmlns="http://www.w3.org/2000/svg">
  <g transform="matrix(1 0 0 1 -130 -421 )">
    <path d="M 134 421  C 136.24 421  138 422.76  138 425  C 138 427.24  136.24 429  134 429  C 131.76 429  130 427.24  130 425  C 130 422.76  131.76 421  134 421  Z " fill-rule="nonzero" fill="#000000" stroke="none" />
    <path d="M 134 421.5  C 135.96 421.5  137.5 423.04  137.5 425  C 137.5 426.96  135.96 428.5  134 428.5  C 132.04 428.5  130.5 426.96  130.5 425  C 130.5 423.04  132.04 421.5  134 421.5  Z " stroke-width="1" stroke="#797979" fill="none" />
  </g>
</svg>