<?xml version="1.0" encoding="utf-8"?>
<svg version="1.1" xmlns:xlink="http://www.w3.org/1999/xlink" width="103.553846153846px" height="10px" preserveAspectRatio="xMinYMid meet" viewBox="885 526  103.553846153846 8" xmlns="http://www.w3.org/2000/svg">
  <path d="M 890 530.5  L 984.053846153846 530.5  L 984.053846153846 622.5  L 1011.5 622.5  " stroke-width="1" stroke="#ff0000" fill="none" />
  <path d="M 888 527.5  A 3 3 0 0 0 885 530.5 A 3 3 0 0 0 888 533.5 A 3 3 0 0 0 891 530.5 A 3 3 0 0 0 888 527.5 Z M 888 528.5  A 2 2 0 0 1 890 530.5 A 2 2 0 0 1 888 532.5 A 2 2 0 0 1 886 530.5 A 2 2 0 0 1 888 528.5 Z M 1013.5 619.5  A 3 3 0 0 0 1010.5 622.5 A 3 3 0 0 0 1013.5 625.5 A 3 3 0 0 0 1016.5 622.5 A 3 3 0 0 0 1013.5 619.5 Z M 1013.5 620.5  A 2 2 0 0 1 1015.5 622.5 A 2 2 0 0 1 1013.5 624.5 A 2 2 0 0 1 1011.5 622.5 A 2 2 0 0 1 1013.5 620.5 Z " fill-rule="nonzero" fill="#ff0000" stroke="none" />
</svg>