<?xml version="1.0" encoding="utf-8"?>
<svg version="1.1" xmlns:xlink="http://www.w3.org/1999/xlink" width="10px" height="34px" preserveAspectRatio="xMidYMin meet" viewBox="979 617  8 34" xmlns="http://www.w3.org/2000/svg">
  <path d="M 886 646.5  L 983.5 646.5  L 983.5 622.5  L 1011.5 622.5  " stroke-width="1" stroke="#ff0000" fill="none" />
  <path d="M 884 643.5  A 3 3 0 0 0 881 646.5 A 3 3 0 0 0 884 649.5 A 3 3 0 0 0 887 646.5 A 3 3 0 0 0 884 643.5 Z M 884 644.5  A 2 2 0 0 1 886 646.5 A 2 2 0 0 1 884 648.5 A 2 2 0 0 1 882 646.5 A 2 2 0 0 1 884 644.5 Z M 1013.5 619.5  A 3 3 0 0 0 1010.5 622.5 A 3 3 0 0 0 1013.5 625.5 A 3 3 0 0 0 1016.5 622.5 A 3 3 0 0 0 1013.5 619.5 Z M 1013.5 620.5  A 2 2 0 0 1 1015.5 622.5 A 2 2 0 0 1 1013.5 624.5 A 2 2 0 0 1 1011.5 622.5 A 2 2 0 0 1 1013.5 620.5 Z " fill-rule="nonzero" fill="#ff0000" stroke="none" />
</svg>