<?xml version="1.0" encoding="utf-8"?>
<svg version="1.1" xmlns:xlink="http://www.w3.org/1999/xlink" width="122px" height="10px" preserveAspectRatio="xMinYMid meet" viewBox="899 142  122 8" xmlns="http://www.w3.org/2000/svg">
  <path d="M 904 146.5  L 1011.5 146.5  " stroke-width="1" stroke="#ff0000" fill="none" />
  <path d="M 902 143.5  A 3 3 0 0 0 899 146.5 A 3 3 0 0 0 902 149.5 A 3 3 0 0 0 905 146.5 A 3 3 0 0 0 902 143.5 Z M 902 144.5  A 2 2 0 0 1 904 146.5 A 2 2 0 0 1 902 148.5 A 2 2 0 0 1 900 146.5 A 2 2 0 0 1 902 144.5 Z M 1013.5 143.5  A 3 3 0 0 0 1010.5 146.5 A 3 3 0 0 0 1013.5 149.5 A 3 3 0 0 0 1016.5 146.5 A 3 3 0 0 0 1013.5 143.5 Z M 1013.5 144.5  A 2 2 0 0 1 1015.5 146.5 A 2 2 0 0 1 1013.5 148.5 A 2 2 0 0 1 1011.5 146.5 A 2 2 0 0 1 1013.5 144.5 Z " fill-rule="nonzero" fill="#ff0000" stroke="none" />
</svg>