<?xml version="1.0" encoding="utf-8"?>
<svg version="1.1" xmlns:xlink="http://www.w3.org/1999/xlink" width="10px" height="5px" preserveAspectRatio="xMinYMid meet" viewBox="880 424  10 3" xmlns="http://www.w3.org/2000/svg">
  <path d="M 885.5 428  L 885.5 429.5  L 1011.5 429.5  " stroke-width="1" stroke="#ff0000" fill="none" />
  <path d="M 886 426.5  A 3 3 0 0 0 883 429.5 A 3 3 0 0 0 886 432.5 A 3 3 0 0 0 889 429.5 A 3 3 0 0 0 886 426.5 Z M 886 427.5  A 2 2 0 0 1 888 429.5 A 2 2 0 0 1 886 431.5 A 2 2 0 0 1 884 429.5 A 2 2 0 0 1 886 427.5 Z M 1013.5 426.5  A 3 3 0 0 0 1010.5 429.5 A 3 3 0 0 0 1013.5 432.5 A 3 3 0 0 0 1016.5 429.5 A 3 3 0 0 0 1013.5 426.5 Z M 1013.5 427.5  A 2 2 0 0 1 1015.5 429.5 A 2 2 0 0 1 1013.5 431.5 A 2 2 0 0 1 1011.5 429.5 A 2 2 0 0 1 1013.5 427.5 Z " fill-rule="nonzero" fill="#ff0000" stroke="none" />
</svg>