<?xml version="1.0" encoding="utf-8"?>
<svg version="1.1" xmlns:xlink="http://www.w3.org/1999/xlink" width="17px" height="17px" xmlns="http://www.w3.org/2000/svg">
  <g transform="matrix(1 0 0 1 -766 -422 )">
    <path d="M 16.568359375 0.763671875  C 16.8561197916667 0.889105902777778  17 1.10677083333333  17 1.41666666666667  L 17 6.375  C 17 6.56684027777778  16.9299045138889 6.73285590277778  16.7897135416667 6.873046875  C 16.6495225694444 7.01323784722222  16.4835069444444 7.08333333333333  16.2916666666667 7.08333333333333  L 11.3333333333333 7.08333333333333  C 11.0234375 7.08333333333333  10.8057725694444 6.93576388888889  10.6803385416667 6.640625  C 10.5549045138889 6.35286458333333  10.6065538194444 6.09830729166667  10.8352864583333 5.876953125  L 12.3626302083333 4.349609375  C 11.2706163194444 3.33875868055555  9.98307291666667 2.83333333333333  8.5 2.83333333333333  C 7.73263888888889 2.83333333333333  7.00032552083333 2.98274739583333  6.30305989583333 3.28157552083333  C 5.60579427083333 3.58040364583333  5.00260416666667 3.984375  4.49348958333333 4.49348958333333  C 3.984375 5.00260416666667  3.58040364583333 5.60579427083333  3.28157552083333 6.30305989583333  C 2.98274739583333 7.00032552083333  2.83333333333333 7.73263888888889  2.83333333333333 8.5  C 2.83333333333333 9.26736111111111  2.98274739583333 9.99967447916667  3.28157552083333 10.6969401041667  C 3.58040364583333 11.3942057291667  3.984375 11.9973958333333  4.49348958333333 12.5065104166667  C 5.00260416666667 13.015625  5.60579427083333 13.4195963541667  6.30305989583333 13.7184244791667  C 7.00032552083333 14.0172526041667  7.73263888888889 14.1666666666667  8.5 14.1666666666667  C 9.37803819444444 14.1666666666667  10.2081163194444 13.9748263888889  10.990234375 13.5911458333333  C 11.7723524305556 13.2074652777778  12.4327256944444 12.6651475694444  12.9713541666667 11.9641927083333  C 13.0230034722222 11.8904079861111  13.1078559027778 11.8461371527778  13.2259114583333 11.8313802083333  C 13.3292100694444 11.8313802083333  13.4214409722222 11.8645833333333  13.5026041666667 11.9309895833333  L 15.0188802083333 13.4583333333333  C 15.0852864583333 13.5173611111111  15.1203342013889 13.5929904513889  15.1240234375 13.6852213541667  C 15.1277126736111 13.7774522569444  15.1000434027778 13.8604600694444  15.041015625 13.9342447916667  C 14.2367621527778 14.908203125  13.2628038194444 15.6626519097222  12.119140625 16.1975911458333  C 10.9754774305556 16.7325303819444  9.76909722222222 17  8.5 17  C 7.34895833333333 17  6.24956597222222 16.7749565972222  5.20182291666667 16.3248697916667  C 4.15407986111111 15.8747829861111  3.25021701388889 15.2697482638889  2.490234375 14.509765625  C 1.73025173611111 13.7497829861111  1.12521701388889 12.8459201388889  0.675130208333333 11.7981770833333  C 0.225043402777778 10.7504340277778  0 9.65104166666667  0 8.5  C 0 7.34895833333333  0.225043402777778 6.24956597222222  0.675130208333333 5.20182291666667  C 1.12521701388889 4.15407986111111  1.73025173611111 3.25021701388889  2.490234375 2.490234375  C 3.25021701388889 1.73025173611111  4.15407986111111 1.12521701388889  5.20182291666667 0.675130208333333  C 6.24956597222222 0.225043402777778  7.34895833333333 0  8.5 0  C 9.58463541666667 0  10.6342230902778 0.204752604166667  11.6487630208333 0.6142578125  C 12.6633029513889 1.02376302083333  13.5653211805556 1.60112847222222  14.3548177083333 2.34635416666667  L 15.7936197916667 0.918619791666667  C 16.0075954861111 0.689887152777778  16.2658420138889 0.638237847222221  16.568359375 0.763671875  Z " fill-rule="nonzero" fill="#ffffff" stroke="none" transform="matrix(1 0 0 1 766 422 )" />
  </g>
</svg>