<?xml version="1.0" encoding="utf-8"?>
<svg version="1.1" xmlns:xlink="http://www.w3.org/1999/xlink" width="33px" height="28px" xmlns="http://www.w3.org/2000/svg">
  <g transform="matrix(1 0 0 1 -220 -419 )">
    <path d="M 27.5429945880938 15.3721590909091  C 27.8075766686711 15.4782196969697  27.9398677089597 15.6704545454545  27.9398677089597 15.9488636363636  L 27.9398677089597 22.2727272727273  C 27.9398677089597 23.8503787878788  27.3809380637402 25.1993371212121  26.2630787733013 26.3196022727273  C 25.1452194828623 27.4398674242424  23.7991581479254 28  22.2248947684907 28  L 5.71497294046903 28  C 4.14070956103428 28  2.79464822609741 27.4398674242424  1.67678893565845 26.3196022727273  C 0.558929645219483 25.1993371212121  0 23.8503787878788  0 22.2727272727273  L 0 5.72727272727273  C 0 4.14962121212121  0.558929645219483 2.80066287878788  1.67678893565845 1.68039772727273  C 2.79464822609741 0.560132575757573  4.14070956103428 0  5.71497294046903 0  L 22.2248947684907 0  C 23.0583283223091 0  23.8322309079976 0.165719696969695  24.5466025255562 0.497159090909089  C 24.7450390859892 0.589962121212119  24.8641010222489 0.742424242424242  24.9037883343355 0.954545454545454  C 24.9434756464221 1.17992424242424  24.8839446782922 1.37215909090909  24.7251954299459 1.53125  L 23.7528562838244 2.50568181818182  C 23.6205652435358 2.63825757575757  23.4684305472038 2.70454545454545  23.2964521948286 2.70454545454545  C 23.256764882742 2.70454545454545  23.1972339146121 2.69128787878788  23.117859290439 2.66477272727273  C 22.8135898977751 2.58522727272727  22.5159350571257 2.54545454545455  22.2248947684907 3  L 5.71497294046903 3  C 4.84185207456404 2.54545454545455  4.09440769693325 2.85700757575757  3.47263980757667 3.48011363636364  C 2.85087191822008 4.1032196969697  2.53998797354179 4.85227272727273  3 5.72727272727273  L 3 22.2727272727273  C 2.53998797354179 23.1477272727273  2.85087191822008 23.8967803030303  3.47263980757667 24.5198863636364  C 4.09440769693325 25.1429924242424  4.84185207456404 25.4545454545455  5.71497294046903 25  L 22.2248947684907 25  C 23.0980156343957 25.4545454545455  23.8454600120265 25.1429924242424  24.467227901383 24.5198863636364  C 25.0889957907396 23.8967803030303  25.3998797354179 23.1477272727273  25.3998797354179 22.2727272727273  L 25.3998797354179 17.2215909090909  C 25.3998797354179 17.0492424242424  25.4594107035478 16.9034090909091  25.5784726398076 16.7840909090909  L 26.8484666265785 15.5113636363636  C 26.9807576668671 15.3787878787879  27.132892363199 15.3125  27.3048707155743 15.3125  C 27.3842453397474 15.3125  27.4636199639206 15.3323863636364  27.5429945880938 15.3721590909091  Z M 33 5.09090909090909  C 33 5.52840909090909  32.8412507516536 5.90625  32.5237522549609 6.22443181818182  L 16.3710162357186 22.4119318181818  C 16.0535177390259 22.7301136363636  15.6764882742032 22.8892045454545  15.2399278412508 22.8892045454545  C 14.8033674082983 22.8892045454545  14.4263379434756 22.7301136363636  14.1088394467829 22.4119318181818  L 5.57606734816597 13.8607954545455  C 5.25856885147324 13.5426136363636  5.09981960312688 13.1647727272727  5.09981960312688 12.7272727272727  C 5.09981960312688 12.2897727272727  5.25856885147324 11.9119318181818  5.57606734816597 11.59375  L 7.75886951292844 9.40625  C 8.07636800962117 9.08806818181818  8.45339747444378 8.92897727272727  8.88995790739627 8.92897727272727  C 9.32651834034877 8.92897727272727  9.70354780517138 9.08806818181818  10.0210463018641 9.40625  L 15.2399278412508 14.6363636363636  L 28.0787733012628 1.76988636363636  C 28.3962717979555 1.45170454545455  28.7733012627781 1.29261363636364  29.2098616957306 1.29261363636364  C 29.6464221286831 1.29261363636364  30.0234515935057 1.45170454545455  30.3409500901984 1.76988636363636  L 32.5237522549609 3.95738636363636  C 32.8412507516536 4.27556818181818  33 4.65340909090909  33 5.09090909090909  Z " fill-rule="nonzero" fill="#ffffff" stroke="none" transform="matrix(1 0 0 1 220 419 )" />
  </g>
</svg>